<svg width="601" height="566" viewBox="0 0 601 566" fill="none" xmlns="http://www.w3.org/2000/svg">
<rect width="601" height="566" fill="white"/>
<rect x="46" y="56" width="510" height="454" fill="white"/>
<circle cx="382" cy="287" r="30" fill="#ABFFB3"/>
<path d="M536.707 287.707C537.098 287.317 537.098 286.683 536.707 286.293L530.343 279.929C529.953 279.538 529.319 279.538 528.929 279.929C528.538 280.319 528.538 280.953 528.929 281.343L534.586 287L528.929 292.657C528.538 293.047 528.538 293.681 528.929 294.071C529.319 294.462 529.953 294.462 530.343 294.071L536.707 287.707ZM412 287L412 288L536 288L536 287L536 286L412 286L412 287Z" fill="black"/>
<path d="M370 287.988C370 287.988 370 287.825 370 287.5C370 287.175 370.175 286.924 370.526 286.749H381.749V281.119L381.787 275.488C382.037 275.163 382.275 275 382.5 275C382.825 275 383.076 275.188 383.251 275.563V286.749H394.437C394.812 286.949 395 287.2 395 287.5C395 287.8 394.812 288.05 394.437 288.251H383.251V299.437C383.051 299.787 382.825 299.962 382.575 299.962H382.5H382.425C382.125 299.962 381.899 299.787 381.749 299.437V288.251H370.526C370.175 288.076 370 287.825 370 287.5V287.988Z" fill="black" stroke="black" stroke-width="0.75"/>
<circle cx="86" cy="96" r="40" fill="#D6ACFF"/>
<path d="M89.2716 84.4634C87.8889 84.7295 87.3704 85.7938 87.3704 86.6364C87.3704 87.7007 88.1914 88.0554 88.7963 88.0554C90.0926 88.0554 91 86.9024 91 85.7051C91 83.8426 88.9259 83 87.1111 83C84.4753 83 83.0062 85.6608 82.6173 86.5033C81.6235 83.1774 78.9444 83 78.1667 83C73.7593 83 71.4259 88.8093 71.4259 89.7849C71.4259 89.9623 71.5988 90.184 71.9012 90.184C72.2469 90.184 72.3333 89.918 72.4198 89.7406C73.8889 84.8182 76.784 83.8869 78.037 83.8869C79.9815 83.8869 80.3704 85.7494 80.3704 86.8137C80.3704 87.7894 80.1111 88.8093 79.5926 90.9379L78.1235 97.0133C77.4753 99.6741 76.2222 102.113 73.9321 102.113C73.716 102.113 72.6358 102.113 71.7284 101.537C73.2839 101.226 73.6296 99.8958 73.6296 99.3636C73.6296 98.4767 72.9815 97.9446 72.1605 97.9446C71.1235 97.9446 70 98.8758 70 100.295C70 102.157 72.0309 103 73.8889 103C75.963 103 77.4321 101.315 78.3395 99.4967C79.0309 102.113 81.1914 103 82.7901 103C87.1975 103 89.5309 97.1907 89.5309 96.2151C89.5309 95.9933 89.358 95.816 89.0988 95.816C88.7099 95.816 88.6667 96.0377 88.537 96.3925C87.3704 100.295 84.8642 102.113 82.9198 102.113C81.4074 102.113 80.5864 100.96 80.5864 99.1419C80.5864 98.1663 80.7593 97.4568 81.4506 94.5299L82.963 88.4989C83.6111 85.8381 85.0802 83.8869 87.0679 83.8869C87.1543 83.8869 88.3642 83.8869 89.2716 84.4634Z" fill="black" stroke="black" stroke-width="0.75"/>
<path d="M101.211 83.8421C101.211 83.0301 101.154 83 100.385 83C99.2165 84.203 97.7066 84.9248 95 84.9248V85.9173C95.7692 85.9173 97.3077 85.9173 98.9601 85.1053V100.534C98.9601 101.647 98.8746 102.008 96.1681 102.008H95.1709V103C96.339 102.91 98.7892 102.91 100.071 102.91C101.353 102.91 103.832 102.91 105 103V102.008H104.003C101.296 102.008 101.211 101.647 101.211 100.534V83.8421Z" fill="black" stroke="black" stroke-width="0.75"/>
<circle cx="86" cy="201" r="40" fill="#D6ACFF"/>
<path d="M89.2716 188.39C87.8889 188.643 87.3704 189.654 87.3704 190.455C87.3704 191.466 88.1914 191.803 88.7963 191.803C90.0926 191.803 91 190.707 91 189.57C91 187.8 88.9259 187 87.1111 187C84.4753 187 83.0062 189.528 82.6173 190.328C81.6235 187.169 78.9444 187 78.1667 187C73.7593 187 71.4259 192.519 71.4259 193.446C71.4259 193.614 71.5988 193.825 71.9012 193.825C72.2469 193.825 72.3333 193.572 72.4198 193.404C73.8889 188.727 76.784 187.843 78.037 187.843C79.9815 187.843 80.3704 189.612 80.3704 190.623C80.3704 191.55 80.1111 192.519 79.5926 194.541L78.1235 200.313C77.4753 202.84 76.2222 205.157 73.9321 205.157C73.716 205.157 72.6358 205.157 71.7284 204.61C73.2839 204.315 73.6296 203.051 73.6296 202.545C73.6296 201.703 72.9815 201.197 72.1605 201.197C71.1235 201.197 70 202.082 70 203.43C70 205.2 72.0309 206 73.8889 206C75.963 206 77.4321 204.399 78.3395 202.672C79.0309 205.157 81.1914 206 82.7901 206C87.1975 206 89.5309 200.481 89.5309 199.554C89.5309 199.344 89.358 199.175 89.0988 199.175C88.7099 199.175 88.6667 199.386 88.537 199.723C87.3704 203.43 84.8642 205.157 82.9198 205.157C81.4074 205.157 80.5864 204.062 80.5864 202.335C80.5864 201.408 80.7593 200.734 81.4506 197.953L82.963 192.224C83.6111 189.696 85.0802 187.843 87.0679 187.843C87.1543 187.843 88.3642 187.843 89.2716 188.39Z" fill="black" stroke="black" stroke-width="0.75"/>
<path d="M100.481 206.478C100.934 206.072 102.123 205.179 102.575 204.8C104.33 203.257 106 201.768 106 199.305C106 196.084 103.17 194 99.6321 194C96.2358 194 94 196.463 94 198.872C94 200.198 95.1038 200.388 95.5 200.388C96.0943 200.388 96.9717 199.982 96.9717 198.953C96.9717 197.546 95.5566 197.546 95.217 197.546C96.0377 195.57 97.934 194.893 99.3208 194.893C101.953 194.893 103.311 197.032 103.311 199.305C103.311 202.12 101.245 204.177 97.9057 207.453L94.3396 210.971C94 211.269 94 211.323 94 212H105.179L106 207.155H105.123C105.038 207.696 104.811 209.05 104.472 209.564C104.302 209.78 102.151 209.78 101.698 209.78H96.6604L100.481 206.478Z" fill="black"/>
<path d="M359.174 266.985C359.718 266.889 360.081 266.37 359.985 265.826L358.418 256.963C358.322 256.419 357.803 256.057 357.259 256.153C356.715 256.249 356.353 256.768 356.449 257.311L357.841 265.189L349.963 266.582C349.419 266.678 349.057 267.197 349.153 267.741C349.249 268.285 349.768 268.647 350.311 268.551L359.174 266.985ZM126 103L125.427 103.819L358.427 266.819L359 266L359.573 265.181L126.573 102.181L126 103Z" fill="black"/>
<path d="M352.448 278.894C352.942 278.646 353.141 278.045 352.894 277.552L348.858 269.507C348.611 269.013 348.01 268.814 347.516 269.062C347.022 269.309 346.823 269.91 347.071 270.404L350.658 277.555L343.507 281.142C343.013 281.389 342.814 281.99 343.062 282.484C343.309 282.978 343.91 283.177 344.404 282.929L352.448 278.894ZM126 203L125.685 203.949L351.685 278.949L352 278L352.315 277.051L126.315 202.051L126 203Z" fill="black"/>
<path d="M382.278 256.692C382.661 257.091 383.294 257.104 383.692 256.722L390.187 250.492C390.586 250.109 390.599 249.476 390.217 249.078C389.835 248.679 389.201 248.666 388.803 249.048L383.029 254.586L377.492 248.813C377.109 248.414 376.476 248.401 376.078 248.783C375.679 249.165 375.666 249.799 376.048 250.197L382.278 256.692ZM384 208L383 207.979L382 255.979L383 256L384 256.021L385 208.021L384 208Z" fill="black"/>
<rect x="202" y="83" width="38" height="158" fill="white"/>
<path d="M226.98 169.904L226.714 169.9C226.525 169.892 226.265 169.857 225.934 169.792C225.603 169.728 225.244 169.632 224.857 169.503L224.52 169.368L224.848 168.552L225.184 168.688C225.749 168.887 226.299 169.005 226.833 169.041C227.367 169.077 227.755 169.069 227.996 169.015C228.238 168.96 228.455 168.897 228.649 168.824C228.687 168.798 228.765 168.809 228.883 168.856C228.99 168.899 229.076 168.975 229.142 169.084L227.011 174.386L224.891 179.712C224.94 179.828 224.99 179.91 225.039 179.957C225.089 180.005 225.221 180.085 225.436 180.199C225.651 180.313 226.013 180.472 226.521 180.676L226.981 180.861L226.654 181.677L226.459 181.599C226.225 181.464 225.293 181.068 223.662 180.413C222.056 179.768 221.121 179.413 220.859 179.348L220.646 179.263L220.974 178.447L221.435 178.632C221.695 178.737 221.919 178.827 222.108 178.903C222.297 178.979 222.447 179.032 222.558 179.063C222.669 179.094 222.771 179.114 222.863 179.124C222.955 179.134 223.007 179.141 223.019 179.146C223.031 179.15 223.078 179.135 223.161 179.1C223.244 179.064 223.289 179.055 223.296 179.071L226.98 169.904Z" fill="black" stroke="black" stroke-width="0.75"/>
<path d="M213.478 164.386C213.413 166.473 215.159 167.562 216.312 168.025C218.616 168.951 220.785 167.499 222.475 165.748C223.879 164.269 226.61 160.717 227.329 158.928C228.072 157.079 227.205 156.519 226.932 156.409C226.204 156.117 225.245 156.576 225.001 157.183C224.855 157.547 224.982 157.844 225.085 158.027C225.248 158.409 225.707 159.545 225.074 161.121C224.659 162.152 222.665 164.662 221.455 165.831C219.863 167.339 218.253 168.101 216.677 167.468C214.979 166.785 214.945 165.292 215.505 163.897C215.859 163.018 216.558 162.066 216.886 161.6L220.207 157.017C220.603 156.472 221.302 155.52 221.351 155.399C221.534 154.944 221.292 154.495 220.837 154.312C219.957 153.958 219.441 154.631 218.966 155.286C218.188 156.347 214.855 160.959 214.465 161.578C214.137 162.044 214.003 162.378 213.735 163.045C213.442 163.773 212.009 164.535 211.954 164.583C211.486 164.783 210.794 165.103 209.854 164.726C207.459 163.763 208.373 161.489 208.58 160.973C208.97 160.003 209.718 158.754 212.533 155.694C213.274 154.9 213.585 154.567 213.828 153.961C214.34 152.687 213.893 151.169 212.408 150.572C209.618 149.451 206.729 153.397 206.632 153.639C206.583 153.761 206.643 153.961 206.855 154.046C207.128 154.156 207.207 154.047 207.499 153.671C209.33 151.307 210.951 150.691 212.073 151.142C212.376 151.264 212.849 151.489 212.459 152.459C212.398 152.611 212.142 153.248 211.091 154.375C208.142 157.592 207.339 158.714 206.876 159.866C205.597 163.05 207.973 164.674 209.519 165.296C210.035 165.503 211.399 166.051 213.478 164.386Z" fill="black" stroke="black" stroke-width="0.75"/>
<path d="M214.208 235.722C214.502 237.789 216.408 238.564 217.623 238.824C220.051 239.343 221.94 237.541 223.306 235.527C224.437 233.83 226.521 229.864 226.924 227.978C227.34 226.029 226.39 225.626 226.103 225.564C225.336 225.4 224.469 226.017 224.332 226.656C224.25 227.04 224.426 227.311 224.559 227.473C224.785 227.822 225.432 228.863 225.077 230.525C224.844 231.611 223.308 234.424 222.316 235.783C221.004 237.541 219.549 238.567 217.887 238.212C216.097 237.829 215.809 236.364 216.123 234.894C216.321 233.967 216.847 232.91 217.091 232.394L219.581 227.312C219.877 226.707 220.404 225.65 220.431 225.522C220.533 225.043 220.218 224.641 219.739 224.539C218.812 224.341 218.417 225.092 218.062 225.818C217.476 226.996 214.98 232.11 214.702 232.786C214.458 233.302 214.383 233.654 214.233 234.357C214.069 235.124 212.787 236.12 212.741 236.177C212.314 236.453 211.687 236.887 210.696 236.676C208.172 236.136 208.684 233.739 208.8 233.196C209.018 232.173 209.542 230.815 211.793 227.319C212.388 226.41 212.637 226.029 212.773 225.39C213.06 224.048 212.361 222.628 210.795 222.294C207.854 221.666 205.682 226.047 205.627 226.303C205.6 226.431 205.694 226.618 205.917 226.665C206.205 226.727 206.264 226.606 206.488 226.186C207.888 223.544 209.38 222.66 210.562 222.913C210.882 222.981 211.386 223.122 211.168 224.145C211.134 224.304 210.99 224.976 210.147 226.266C207.791 229.94 207.192 231.182 206.932 232.396C206.215 235.752 208.834 236.946 210.464 237.294C211.007 237.41 212.445 237.718 214.208 235.722Z" fill="black" stroke="black" stroke-width="0.75"/>
<path d="M231.08 241.832C231.489 241.585 232.534 241.073 232.939 240.848C234.519 239.916 236.026 239.012 236.441 237.074C236.982 234.538 235.202 232.442 232.539 231.874C229.982 231.327 227.885 232.907 227.48 234.803C227.257 235.847 228.056 236.173 228.354 236.237C228.802 236.333 229.53 236.154 229.703 235.345C229.94 234.237 228.875 234.009 228.619 233.955C229.569 232.531 231.11 232.304 232.154 232.527C234.136 232.95 234.799 234.852 234.417 236.641C233.943 238.857 232.042 240.144 228.977 242.185L225.701 244.381C225.395 244.561 225.386 244.603 225.272 245.136L233.688 246.934L235.121 243.252L234.46 243.111C234.305 243.524 233.907 244.553 233.565 244.903C233.401 245.046 231.782 244.7 231.441 244.627L227.648 243.817L231.08 241.832Z" fill="black" stroke="black" stroke-width="0.75"/>
<path d="M384.763 181.909C384.799 181.764 384.872 181.545 384.872 181.364C384.872 181 384.509 181 384.436 181C384.399 181 383.09 181.109 382.436 181.182C381.818 181.218 381.272 181.291 380.618 181.327C379.745 181.4 379.491 181.436 379.491 182.091C379.491 182.454 379.854 182.454 380.218 182.454C382.072 182.454 382.072 182.782 382.072 183.145C382.072 183.4 381.781 184.454 381.636 185.109L380.763 188.599C380.4 190.054 378.327 198.308 378.182 198.962C378 199.871 378 200.489 378 200.962C378 204.671 380.073 206.598 382.436 206.598C386.654 206.598 391.017 201.18 391.017 195.908C391.017 192.563 389.126 190.199 386.399 190.199C384.509 190.199 382.8 191.763 382.109 192.49L384.763 181.909ZM382.472 205.871C381.309 205.871 380.036 204.998 380.036 202.162C380.036 200.962 380.145 200.271 380.8 197.726C380.909 197.253 381.491 194.926 381.636 194.453C381.709 194.162 383.854 190.926 386.327 190.926C387.926 190.926 388.654 192.526 388.654 194.417C388.654 196.162 387.636 200.271 386.727 202.162C385.817 204.125 384.145 205.871 382.472 205.871Z" fill="black" stroke="black" stroke-width="0.75"/>
<path d="M548.818 264L543.833 269.176L544.442 269.747L548.78 265.827L553.157 269.747L553.766 269.176L548.818 264Z" fill="black" stroke="black" stroke-width="0.75"/>
<path d="M546.466 297.523C545.268 299.208 543.539 300.716 541.366 300.716C540.834 300.716 538.705 300.628 538.04 298.588C538.173 298.632 538.395 298.632 538.483 298.632C539.814 298.632 540.701 297.479 540.701 296.459C540.701 295.439 539.858 295.084 539.193 295.084C538.483 295.084 536.931 295.616 536.931 297.789C536.931 300.051 538.838 301.603 541.366 301.603C545.8 301.603 550.279 297.523 551.521 292.601L555.867 275.306C555.911 275.084 556 274.818 556 274.552C556 273.887 555.468 273.443 554.803 273.443C554.404 273.443 553.472 273.621 553.118 274.951L549.836 287.989C549.614 288.787 549.614 288.876 549.259 289.364C548.373 290.605 546.909 292.113 544.78 292.113C542.297 292.113 542.075 289.674 542.075 288.477C542.075 285.949 543.273 282.534 544.47 279.341C544.958 278.055 545.224 277.435 545.224 276.548C545.224 274.685 543.894 273 541.721 273C537.641 273 536 279.43 536 279.785C536 279.962 536.177 280.184 536.488 280.184C536.887 280.184 536.931 280.007 537.109 279.386C538.173 275.661 539.858 273.887 541.588 273.887C541.987 273.887 542.741 273.887 542.741 275.35C542.741 276.503 542.253 277.789 541.588 279.475C539.415 285.284 539.415 286.747 539.415 287.812C539.415 292.024 542.43 293 544.647 293C545.933 293 547.53 292.601 549.082 290.96L549.126 291.004C548.461 293.621 548.018 295.35 546.466 297.523Z" fill="black"/>
<circle cx="86" cy="365" r="40" fill="#D6ACFF"/>
<circle cx="86" cy="470" r="40" fill="#D6ACFF"/>
<path d="M353.884 298.467C354.142 297.979 353.956 297.374 353.467 297.116L345.511 292.91C345.022 292.652 344.417 292.838 344.159 293.327C343.901 293.815 344.088 294.42 344.576 294.678L351.649 298.417L347.91 305.489C347.652 305.978 347.838 306.583 348.327 306.841C348.815 307.099 349.42 306.912 349.678 306.424L353.884 298.467ZM126 368L126.295 368.956L353.295 298.956L353 298L352.705 297.044L125.705 367.044L126 368Z" fill="black"/>
<path d="M361.979 310.204C362.092 309.663 361.745 309.134 361.204 309.021L352.393 307.186C351.852 307.074 351.323 307.421 351.21 307.961C351.097 308.502 351.444 309.032 351.985 309.144L359.817 310.775L358.186 318.607C358.074 319.148 358.421 319.677 358.961 319.79C359.502 319.903 360.032 319.556 360.144 319.015L361.979 310.204ZM126 464L126.548 464.836L361.548 310.836L361 310L360.452 309.164L125.452 463.164L126 464Z" fill="black"/>
<rect x="179.195" y="365.548" width="38" height="75.3053" transform="rotate(-103.759 179.195 365.548)" fill="white"/>
<path d="M86.6559 460.38C85.3174 460.631 84.8154 461.635 84.8154 462.43C84.8154 463.434 85.6102 463.769 86.1958 463.769C87.4507 463.769 88.3291 462.681 88.3291 461.552C88.3291 459.795 86.3213 459 84.5644 459C82.0128 459 80.5906 461.51 80.2142 462.305C79.2521 459.167 76.6587 459 75.9058 459C71.6392 459 69.3804 464.48 69.3804 465.4C69.3804 465.567 69.5477 465.776 69.8405 465.776C70.1751 465.776 70.2588 465.525 70.3424 465.358C71.7646 460.715 74.5672 459.837 75.7803 459.837C77.6626 459.837 78.0391 461.593 78.0391 462.597C78.0391 463.518 77.7881 464.48 77.2861 466.487L75.8639 472.218C75.2365 474.728 74.0234 477.028 71.8065 477.028C71.5973 477.028 70.5516 477.028 69.6732 476.485C71.179 476.192 71.5137 474.937 71.5137 474.435C71.5137 473.598 70.8862 473.097 70.0915 473.097C69.0876 473.097 68 473.975 68 475.313C68 477.07 69.966 477.865 71.7646 477.865C73.7725 477.865 75.1947 476.276 76.0731 474.561C76.7423 477.028 78.8338 477.865 80.3815 477.865C84.6481 477.865 86.9069 472.385 86.9069 471.465C86.9069 471.256 86.7396 471.089 86.4886 471.089C86.1121 471.089 86.0703 471.298 85.9448 471.632C84.8154 475.313 82.3893 477.028 80.507 477.028C79.043 477.028 78.2482 475.941 78.2482 474.226C78.2482 473.306 78.4155 472.636 79.0848 469.876L80.5488 464.187C81.1763 461.677 82.5985 459.837 84.5226 459.837C84.6063 459.837 85.7775 459.837 86.6559 460.38Z" fill="black" stroke="black" stroke-width="0.75"/>
<path d="M95.6807 479.148C95.7644 478.73 96.0433 477.67 96.1269 477.252C96.5173 475.746 96.5173 475.718 97.1587 474.798C98.0789 473.431 99.3896 472.204 101.258 472.204C102.262 472.204 102.847 472.79 102.847 474.1C102.847 475.634 101.676 478.813 101.146 480.18C100.784 481.1 100.784 481.267 100.784 481.63C100.784 483.219 102.095 484 103.294 484C106.027 484 107.17 480.096 107.17 479.733C107.17 479.455 106.947 479.371 106.752 479.371C106.417 479.371 106.361 479.566 106.278 479.845C105.608 482.132 104.437 483.219 103.377 483.219C102.931 483.219 102.708 482.94 102.708 482.299C102.708 481.658 102.931 481.044 103.21 480.347C103.628 479.287 104.855 476.08 104.855 474.519C104.855 472.427 103.405 471.423 101.397 471.423C99.1386 471.423 97.6885 472.79 96.8798 473.849C96.6846 472.316 95.4576 471.423 94.0354 471.423C93.0315 471.423 92.3344 472.065 91.8882 472.929C91.2189 474.24 90.9401 475.634 90.9401 475.69C90.9401 475.941 91.1353 476.052 91.3584 476.052C91.7209 476.052 91.7488 475.941 91.944 475.216C92.2786 473.849 92.7806 472.204 93.9518 472.204C94.6768 472.204 94.8441 472.901 94.8441 473.515C94.8441 474.017 94.7047 474.547 94.4816 475.467C94.4258 475.69 94.0076 477.335 93.896 477.726L92.8642 481.909C92.7527 482.327 92.5854 483.024 92.5854 483.136C92.5854 483.777 93.1152 484 93.4777 484C93.9797 484 94.398 483.665 94.5932 483.331C94.6768 483.163 94.8999 482.215 95.0393 481.63L95.6807 479.148Z" fill="black" stroke="black" stroke-width="0.75"/>
<rect x="198" y="372" width="41" height="77" fill="white"/>
<path d="M213.168 411.867C214.731 413.311 216.736 412.695 217.862 412.118C220.115 410.964 220.446 408.324 220.228 405.853C220.028 403.785 219.12 399.311 218.224 397.562C217.297 395.754 216.287 396.047 216.02 396.184C215.309 396.548 215.022 397.594 215.325 398.187C215.508 398.542 215.821 398.643 216.03 398.686C216.434 398.816 217.615 399.221 218.404 400.763C218.921 401.77 219.519 404.982 219.61 406.694C219.707 408.927 219.218 410.675 217.677 411.464C216.017 412.315 214.846 411.344 214.147 409.98C213.706 409.121 213.441 407.947 213.302 407.382L211.995 401.765C211.839 401.096 211.574 399.922 211.513 399.803C211.286 399.359 210.778 399.245 210.333 399.473C209.474 399.913 209.646 400.76 209.833 401.563C210.129 402.871 211.451 408.518 211.667 409.23C211.806 409.795 211.974 410.121 212.308 410.773C212.672 411.484 212.301 413.097 212.302 413.171C212.143 413.664 211.927 414.411 211.008 414.882C208.667 416.082 207.527 413.859 207.269 413.355C206.783 412.407 206.322 410.996 205.848 406.786C205.733 405.685 205.684 405.224 205.38 404.631C204.742 403.386 203.276 402.715 201.823 403.46C199.097 404.857 200.203 409.717 200.324 409.954C200.385 410.072 200.579 410.16 200.787 410.054C201.054 409.917 201.022 409.783 200.928 409.307C200.333 406.319 200.942 404.66 202.038 404.098C202.335 403.946 202.824 403.733 203.31 404.681C203.386 404.829 203.705 405.452 203.87 407.014C204.375 411.433 204.702 412.8 205.279 413.926C206.874 417.038 209.711 416.295 211.223 415.52C211.727 415.262 213.061 414.579 213.168 411.867Z" fill="black" stroke="black" stroke-width="0.75"/>
<path d="M229.213 407.448C229.121 407.121 228.933 406.269 228.841 405.942C228.571 404.734 228.56 404.714 228.681 403.829C228.837 402.527 229.32 401.181 230.644 400.503C231.355 400.138 231.983 400.34 232.458 401.269C233.015 402.356 233.34 405.034 233.461 406.194C233.538 406.978 233.599 407.097 233.73 407.353C234.308 408.48 235.52 408.557 236.37 408.122C238.306 407.129 237.698 403.948 237.567 403.691C237.465 403.493 237.277 403.515 237.139 403.586C236.902 403.707 236.933 403.866 236.975 404.094C237.331 405.957 236.896 407.153 236.145 407.538C235.829 407.7 235.57 407.583 235.337 407.129C235.104 406.675 235.039 406.159 234.984 405.564C234.895 404.661 234.6 401.943 234.033 400.836C233.274 399.354 231.881 399.17 230.459 399.899C228.858 400.719 228.327 402.214 228.139 403.258C227.444 402.243 226.25 402.056 225.242 402.572C224.531 402.937 224.27 403.644 224.268 404.419C224.27 405.591 224.578 406.68 224.598 406.719C224.69 406.897 224.868 406.905 225.027 406.824C225.283 406.693 225.263 406.604 225.138 406.019C224.879 404.929 224.637 403.581 225.467 403.156C225.98 402.893 226.352 403.326 226.575 403.761C226.757 404.116 226.851 404.542 227.027 405.275C227.068 405.454 227.369 406.771 227.432 407.088L228.22 410.427C228.293 410.764 228.428 411.319 228.468 411.398C228.701 411.852 229.157 411.818 229.414 411.686C229.77 411.504 229.945 411.115 229.962 410.807C229.96 410.658 229.774 409.905 229.66 409.44L229.213 407.448Z" fill="black" stroke="black" stroke-width="0.75"/>
<path d="M214 265.979C214 264.866 213.052 264 212.021 264C210.825 264 210 264.948 210 265.979C210 267.216 211.031 268 211.979 268C213.093 268 214 267.134 214 265.979Z" fill="black"/>
<path d="M214 279.725C214 278.612 213.052 277.746 212.021 277.746C210.825 277.746 210 278.694 210 279.725C210 280.962 211.031 281.746 211.979 281.746C213.093 281.746 214 280.88 214 279.725Z" fill="black"/>
<path d="M214 293.471C214 292.357 213.052 291.491 212.021 291.491C210.825 291.491 210 292.44 210 293.471C210 294.708 211.031 295.491 211.979 295.491C213.093 295.491 214 294.625 214 293.471Z" fill="black"/>
<path d="M89 265.979C89 264.866 88.0515 264 87.0206 264C85.8247 264 85 264.948 85 265.979C85 267.216 86.0309 268 86.9794 268C88.0928 268 89 267.134 89 265.979Z" fill="black"/>
<path d="M89 279.725C89 278.612 88.0515 277.746 87.0206 277.746C85.8247 277.746 85 278.694 85 279.725C85 280.962 86.0309 281.746 86.9794 281.746C88.0928 281.746 89 280.88 89 279.725Z" fill="black"/>
<path d="M89 293.471C89 292.357 88.0515 291.491 87.0206 291.491C85.8247 291.491 85 292.44 85 293.471C85 294.708 86.0309 295.491 86.9794 295.491C88.0928 295.491 89 294.625 89 293.471Z" fill="black"/>
<path d="M188.847 348.114C190.229 349.943 192.472 349.673 193.776 349.276C196.384 348.482 197.239 345.748 197.479 343.087C197.662 340.857 197.553 335.94 196.937 333.916C196.3 331.822 195.173 331.94 194.865 332.034C194.041 332.285 193.537 333.338 193.746 334.025C193.871 334.437 194.184 334.604 194.398 334.689C194.8 334.904 195.975 335.559 196.518 337.343C196.873 338.51 196.894 342.028 196.664 343.86C196.34 346.246 195.488 348.005 193.704 348.548C191.782 349.133 190.726 347.88 190.245 346.301C189.942 345.306 189.886 344.011 189.845 343.386L189.532 337.182C189.495 336.443 189.438 335.148 189.396 335.011C189.24 334.496 188.723 334.278 188.209 334.435C187.213 334.738 187.234 335.669 187.279 336.555C187.343 337.998 187.667 344.236 187.76 345.033C187.8 345.658 187.915 346.036 188.145 346.791C188.395 347.614 187.694 349.253 187.681 349.332C187.418 349.824 187.047 350.574 185.983 350.898C183.272 351.723 182.488 349.15 182.311 348.566C181.977 347.468 181.757 345.885 182.059 341.331C182.147 340.142 182.182 339.644 181.973 338.958C181.535 337.516 180.108 336.526 178.427 337.037C175.27 337.998 175.514 343.361 175.598 343.635C175.64 343.772 175.829 343.902 176.07 343.829C176.378 343.735 176.371 343.587 176.362 343.065C176.301 339.784 177.263 338.142 178.533 337.755C178.876 337.651 179.435 337.518 179.77 338.616C179.822 338.788 180.041 339.508 179.917 341.196C179.61 345.976 179.695 347.488 180.092 348.792C181.189 352.395 184.339 352.149 186.089 351.616C186.672 351.438 188.216 350.968 188.847 348.114Z" fill="black" stroke="black" stroke-width="0.6"/>
<path d="M206.699 346.493C206.663 346.128 206.628 345.189 206.592 344.825C206.536 343.493 206.529 343.47 206.826 342.555C207.239 341.204 208.008 339.87 209.541 339.403C210.365 339.153 210.991 339.487 211.319 340.562C211.702 341.82 211.534 344.721 211.441 345.974C211.373 346.82 211.415 346.957 211.506 347.254C211.903 348.558 213.173 348.872 214.157 348.572C216.399 347.89 216.362 344.402 216.271 344.104C216.202 343.875 215.998 343.862 215.837 343.911C215.563 343.995 215.566 344.169 215.567 344.418C215.589 346.462 214.9 347.646 214.03 347.911C213.664 348.022 213.411 347.849 213.251 347.323C213.091 346.797 213.121 346.238 213.176 345.596C213.254 344.622 213.46 341.685 213.07 340.404C212.548 338.688 211.108 338.227 209.46 338.728C207.607 339.292 206.759 340.775 206.36 341.846C205.817 340.637 204.587 340.211 203.421 340.566C202.597 340.817 202.185 341.517 202.035 342.338C201.813 343.58 201.933 344.794 201.947 344.839C202.009 345.045 202.197 345.088 202.38 345.032C202.678 344.942 202.673 344.843 202.652 344.2C202.585 342.995 202.586 341.52 203.547 341.228C204.142 341.047 204.453 341.577 204.606 342.08C204.732 342.492 204.75 342.961 204.796 343.772C204.806 343.969 204.874 345.423 204.88 345.771L205.078 349.461C205.091 349.832 205.128 350.445 205.156 350.537C205.316 351.063 205.806 351.114 206.104 351.023C206.515 350.898 206.775 350.519 206.852 350.196C206.878 350.038 206.825 349.204 206.793 348.689L206.699 346.493Z" fill="black" stroke="black" stroke-width="0.6"/>
<path d="M232.426 337.088C232.792 336.976 233.295 336.823 233.135 336.297C232.975 335.771 232.471 335.924 232.105 336.035L218.996 340.025C218.63 340.137 218.127 340.29 218.287 340.816C218.447 341.342 218.951 341.189 219.317 341.078L232.426 337.088Z" fill="black" stroke="black" stroke-width="0.6"/>
<path d="M239.669 324.634C239.481 324.016 239.428 324.007 238.81 324.195C238.151 325.396 237.106 326.314 234.932 326.976L235.162 327.731C235.78 327.543 237.015 327.167 238.154 326.145L241.726 337.881C241.984 338.728 241.999 339.023 239.825 339.685L239.025 339.928L239.254 340.683C240.171 340.329 242.139 339.73 243.168 339.417C244.198 339.104 246.188 338.498 247.147 338.281L246.917 337.526L246.117 337.77C243.943 338.431 243.791 338.178 243.533 337.331L239.669 324.634Z" fill="black" stroke="black" stroke-width="0.6"/>
<path d="M69.0163 353.333C67.7236 353.575 67.2389 354.545 67.2389 355.312C67.2389 356.282 68.0064 356.605 68.5719 356.605C69.7838 356.605 70.6321 355.555 70.6321 354.464C70.6321 352.768 68.6931 352 66.9965 352C64.5324 352 63.159 354.424 62.7954 355.191C61.8663 352.162 59.3618 352 58.6347 352C54.5144 352 52.333 357.292 52.333 358.18C52.333 358.342 52.4946 358.544 52.7774 358.544C53.1006 358.544 53.1813 358.302 53.2621 358.14C54.6356 353.656 57.3421 352.808 58.5135 352.808C60.3313 352.808 60.6949 354.505 60.6949 355.474C60.6949 356.363 60.4525 357.292 59.9677 359.231L58.5943 364.765C57.9884 367.189 56.8169 369.41 54.676 369.41C54.474 369.41 53.4641 369.41 52.6158 368.885C54.07 368.602 54.3932 367.391 54.3932 366.906C54.3932 366.098 53.7873 365.613 53.0198 365.613C52.0503 365.613 51 366.462 51 367.754C51 369.451 52.8986 370.218 54.6356 370.218C56.5745 370.218 57.948 368.683 58.7963 367.027C59.4426 369.41 61.4624 370.218 62.957 370.218C67.0773 370.218 69.2587 364.926 69.2587 364.038C69.2587 363.836 69.0971 363.674 68.8547 363.674C68.4912 363.674 68.4508 363.876 68.3296 364.199C67.2389 367.754 64.896 369.41 63.0782 369.41C61.6644 369.41 60.8968 368.36 60.8968 366.704C60.8968 365.815 61.0584 365.169 61.7047 362.503L63.1186 357.009C63.7245 354.585 65.0979 352.808 66.9561 352.808C67.0369 352.808 68.168 352.808 69.0163 353.333Z" fill="black" stroke="black" stroke-width="0.6"/>
<path d="M77.7317 371.457C77.8125 371.053 78.0818 370.03 78.1625 369.626C78.5396 368.171 78.5396 368.145 79.159 367.256C80.0477 365.936 81.3134 364.751 83.1177 364.751C84.0872 364.751 84.6527 365.317 84.6527 366.583C84.6527 368.064 83.5217 371.134 83.01 372.453C82.6599 373.342 82.6599 373.504 82.6599 373.854C82.6599 375.389 83.9256 376.143 85.0836 376.143C87.7228 376.143 88.8269 372.373 88.8269 372.023C88.8269 371.753 88.6115 371.672 88.423 371.672C88.0998 371.672 88.0459 371.861 87.9651 372.13C87.3188 374.339 86.1877 375.389 85.1644 375.389C84.7335 375.389 84.5181 375.119 84.5181 374.5C84.5181 373.881 84.7335 373.288 85.0028 372.615C85.4068 371.592 86.5917 368.495 86.5917 366.987C86.5917 364.967 85.1913 363.997 83.2524 363.997C81.071 363.997 79.6706 365.317 78.8897 366.34C78.7012 364.859 77.5162 363.997 76.1428 363.997C75.1733 363.997 74.5 364.617 74.0692 365.452C73.4228 366.717 73.1535 368.064 73.1535 368.118C73.1535 368.36 73.342 368.468 73.5575 368.468C73.9076 368.468 73.9345 368.36 74.123 367.66C74.4462 366.34 74.9309 364.751 76.062 364.751C76.7622 364.751 76.9238 365.425 76.9238 366.017C76.9238 366.502 76.7891 367.013 76.5737 367.902C76.5198 368.118 76.1159 369.707 76.0081 370.084L75.0117 374.123C74.904 374.527 74.7424 375.2 74.7424 375.308C74.7424 375.927 75.2541 376.143 75.6042 376.143C76.0889 376.143 76.4929 375.82 76.6814 375.497C76.7622 375.335 76.9776 374.419 77.1123 373.854L77.7317 371.457Z" fill="black" stroke="black" stroke-width="0.6"/>
<path d="M108.531 369.761C108.962 369.761 109.555 369.761 109.555 369.141C109.555 368.522 108.962 368.522 108.531 368.522H93.1003C92.6695 368.522 92.077 368.522 92.077 369.141C92.077 369.761 92.6695 369.761 93.1003 369.761H108.531Z" fill="black" stroke="black" stroke-width="0.6"/>
<path d="M120.418 358.719C120.418 357.992 120.364 357.965 119.637 357.965C118.533 359.042 117.106 359.689 114.548 359.689V360.577C115.275 360.577 116.729 360.577 118.291 359.85V373.665C118.291 374.662 118.21 374.985 115.652 374.985H114.709V375.874C115.813 375.793 118.129 375.793 119.341 375.793C120.553 375.793 122.896 375.793 124 375.874V374.985H123.057C120.499 374.985 120.418 374.662 120.418 373.665V358.719Z" fill="black" stroke="black" stroke-width="0.6"/>
<rect x="456" y="340" width="105" height="35" transform="rotate(-90 456 340)" fill="#FFD19B"/>
<path d="M469.506 330.958C468.951 333.455 467.136 333.53 466.783 333.53C465.497 333.53 464.009 332.698 464.009 330.252C464.009 327.806 465.194 325.612 468.497 325.083C469.027 325.007 469.052 325.007 469.052 324.528C469.052 323.998 468.977 323.998 468.397 323.998L463.656 323.998C463.177 323.998 463 323.998 463 324.377C463 324.553 463.025 324.629 463.277 324.856L464.513 325.94C463.983 326.57 463 327.831 463 330.277C463 333.884 465.27 335.8 468.018 335.8C469.708 335.8 470.893 334.892 471.246 334.539C472.557 333.228 472.709 332.522 473.289 329.899C473.843 327.377 473.894 327.075 474.423 326.52C474.751 326.192 475.457 325.461 476.743 325.461C477.828 325.461 479.82 325.99 479.82 328.815C479.82 331.034 479.064 334.539 475.382 334.741C474.928 334.766 474.852 334.766 474.852 335.27C474.852 335.8 474.928 335.8 475.508 335.8L480.249 335.8C480.728 335.8 480.904 335.8 480.904 335.422C480.904 335.245 480.879 335.22 480.652 334.968C480.375 334.69 480.047 334.464 479.417 333.833C480.577 332.37 480.904 330.303 480.904 328.79C480.904 324.856 478.231 323.191 475.558 323.191C473.188 323.191 470.918 324.755 470.288 327.504L469.506 330.958Z" fill="black"/>
<path d="M464.891 315.979C463.857 315.979 463.076 316.811 463.076 317.795C463.076 318.829 463.933 319.611 464.891 319.611C465.85 319.611 466.707 318.829 466.707 317.795C466.707 316.811 465.925 315.979 464.891 315.979ZM469.456 320.418L470.54 320.418C470.54 318.93 470.54 318.753 471.524 318.753L479.517 318.753L479.517 320.493L480.602 320.493C480.551 319.913 480.551 318.173 480.551 317.492C480.551 316.786 480.551 315.172 480.602 314.567L479.517 314.567L479.517 316.131L469.254 316.131L469.456 320.418Z" fill="black"/>
<path d="M476.012 310.444C476.668 309.233 476.668 307.821 476.668 307.443C476.668 303.963 474.726 302.576 472.961 302.576C471.675 302.576 470.767 303.307 470.515 303.61C470.111 302.879 470.01 302.273 469.96 301.845C470.086 301.92 470.187 301.996 470.515 301.996C471.044 301.996 471.523 301.643 471.523 300.987C471.523 300.332 471.044 299.979 470.515 299.979C469.91 299.979 469.103 300.433 469.103 301.492C469.103 302.576 469.632 303.61 470.086 304.14C469.481 305.173 469.254 306.157 469.254 307.443C469.254 310.923 471.196 312.31 472.961 312.31C473.743 312.31 474.777 312.058 475.634 310.999C476.113 311.427 476.996 311.881 477.903 311.881C478.988 311.881 479.921 311.301 480.324 310.772C480.476 311.377 481.056 312.94 482.493 312.94C483.981 312.94 485.67 311.301 485.67 306.661C485.67 302.475 484.309 300.357 482.417 300.357C480.198 300.357 479.467 301.82 479.164 302.45C478.559 303.66 478.559 305.274 478.559 307.493C478.559 308.124 478.559 309.233 478.534 309.36C478.357 310.444 477.399 310.747 476.92 310.747C476.718 310.747 476.34 310.721 476.012 310.444ZM475.861 307.443C475.861 309.637 474.121 309.637 472.961 309.637C471.801 309.637 470.061 309.637 470.061 307.443C470.061 305.249 471.801 305.249 472.961 305.249C474.121 305.249 475.861 305.249 475.861 307.443ZM480.879 306.031C480.879 304.19 481.207 302.425 482.518 302.425C483.401 302.425 484.863 303.307 484.863 306.636C484.863 309.965 483.451 310.873 482.493 310.873C480.879 310.873 480.879 309.284 480.879 308.906L480.879 306.031Z" fill="black"/>
<path d="M472.885 278.254C470.565 278.254 469.254 279.237 469.254 282.062C469.254 284.609 470.969 285.794 471.776 286.197C469.632 286.601 469.254 288.316 469.254 289.93C469.254 292.35 470.817 293.662 472.028 294.191L472.028 294.217L469.254 294.217L469.456 298.478L470.54 298.478C470.54 296.915 470.54 296.738 471.524 296.738L479.517 296.738L479.517 298.478L480.602 298.478C480.551 297.898 480.551 296.083 480.551 295.377C480.551 294.67 480.551 292.83 480.602 292.25L479.517 292.25L479.517 293.99L474.146 293.99C471.397 293.99 470.086 291.947 470.086 290.358C470.086 289.425 470.641 288.87 472.608 288.87L479.517 288.87L479.517 290.61L480.602 290.61C480.551 290.03 480.551 288.215 480.551 287.509C480.551 286.803 480.551 284.962 480.602 284.382L479.517 284.382L479.517 286.122L474.146 286.122C471.397 286.122 470.086 284.079 470.086 282.49C470.086 281.557 470.641 281.003 472.608 281.003L479.517 281.003L479.517 282.743L480.602 282.743C480.551 282.163 480.551 280.347 480.551 279.641C480.551 278.935 480.551 277.094 480.602 276.514L479.517 276.514L479.517 278.254L472.885 278.254Z" fill="black"/>
<path d="M475.079 262.531C471.675 262.531 469.178 264.851 469.178 268.81C469.178 272.92 471.801 275.114 475.079 275.114C478.383 275.114 480.753 272.794 480.753 268.835C480.753 264.725 478.257 262.531 475.079 262.531ZM479.845 268.81C479.845 272.088 476.895 272.088 474.827 272.088C473.642 272.088 472.381 272.088 471.473 271.609C470.464 271.054 470.01 269.919 470.01 268.835C470.01 267.398 470.691 266.49 471.397 266.061C472.305 265.557 473.617 265.557 474.827 265.557C476.92 265.557 479.845 265.557 479.845 268.81Z" fill="black"/>
<path d="M464.891 256.088C463.857 256.088 463.076 256.92 463.076 257.903C463.076 258.937 463.933 259.719 464.891 259.719C465.85 259.719 466.707 258.937 466.707 257.903C466.707 256.92 465.925 256.088 464.891 256.088ZM469.456 260.526L470.54 260.526C470.54 259.038 470.54 258.862 471.524 258.862L479.517 258.862L479.517 260.602L480.602 260.602C480.551 260.022 480.551 258.282 480.551 257.601C480.551 256.895 480.551 255.281 480.602 254.675L479.517 254.675L479.517 256.239L469.254 256.239L469.456 260.526Z" fill="black"/>
<path d="M463.303 245.08L464.387 245.08C464.387 243.517 464.387 243.34 465.37 243.34L470.464 243.34C469.985 243.895 469.254 245.005 469.254 246.745C469.254 250.326 471.473 252.873 475.004 252.873C478.61 252.873 480.753 250.376 480.753 247.022C480.753 245.635 480.274 244.45 479.442 243.466L480.753 243.466L480.602 238.978L479.517 238.978C479.517 240.541 479.517 240.718 478.534 240.718L463.101 240.718L463.303 245.08ZM478.055 243.466C479.593 244.526 479.921 245.812 479.921 246.72C479.921 249.846 476.718 249.846 475.054 249.846C473.869 249.846 472.608 249.846 471.65 249.292C470.237 248.51 470.086 247.022 470.086 246.442C470.086 245.408 470.54 244.299 471.65 243.466L478.055 243.466Z" fill="black"/>
</svg>
